# Blender v2.79 (sub 0) OBJ File: ''
# www.blender.org
mtllib vehicle.mtl
o Cube.001
v 0.302217 -0.309998 -1.584756
v -1.000000 -0.271619 1.241783
v -0.302216 -0.309998 -1.584756
v -0.083349 -0.006007 -0.758217
v 0.494960 0.292270 1.241783
v 0.083350 -0.006007 -0.758217
v 1.000000 -0.271619 1.241783
v -0.494961 0.292270 1.241783
vn 0.0000 -0.9999 0.0136
vn 0.0000 0.9891 -0.1475
vn 0.5856 0.7940 -0.1630
vn 0.6994 0.6764 -0.2307
vn 0.5627 0.8129 -0.1500
vn 0.0000 0.0000 1.0000
vn -0.6994 0.6764 -0.2307
vn -0.5856 0.7940 -0.1630
vn -0.5627 0.8129 -0.1500
vn 0.0000 0.9385 -0.3452
vn 0.7222 0.6468 -0.2451
vn -0.7222 0.6468 -0.2451
usemtl Material.001
s 1
f 1//1 2//1 3//1
f 4//2 5//2 6//2
f 6//3 7//4 1//5
f 5//6 2//6 7//6
f 2//7 4//8 3//9
f 1//10 4//10 6//10
f 1//1 7//1 2//1
f 4//2 8//2 5//2
f 6//3 5//11 7//4
f 5//6 8//6 2//6
f 2//7 8//12 4//8
f 1//10 3//10 4//10
